<svg xmlns="http://www.w3.org/2000/svg" width="150" height="150" viewBox="0 0 32 32">
  <!-- Background for favicon clarity -->
  <rect width="50" height="50" fill="none"/>
  
  <!-- Neon glow filter -->
  <defs>
    <filter id="glow" x="-50%" y="-50%" width="200%" height="200%">
      <feGaussianBlur in="SourceGraphic" stdDeviation="1.5" result="blur"/>
      <feMerge>
        <feMergeNode in="blur"/>
        <feMergeNode in="SourceGraphic"/>
      </feMerge>
    </filter>
  </defs>
  
  <!-- Shisha base (3D with neon pink gradient) -->
  <path d="M11 16c0 3.5 2.8 5.5 5.5 5.5s5.5-2 5.5-5.5v-5c0-2.5-2-4-4.5-4s-4.5 1.5-4.5 4v5z" fill="url(#baseGradient)" filter="url(#glow)"/>
  <path d="M11 16c0 3.5 2.8 5.5 5.5 5.5s5.5-2 5.5-5.5" fill="none" stroke="#000" stroke-width="0.5" stroke-opacity="0.2"/>
  <defs>
    <linearGradient id="baseGradient" x1="11" y1="7" x2="22" y2="21" gradientUnits="userSpaceOnUse">
      <stop stop-color="#FF007F"/>
      <stop offset="1" stop-color="#C6005C"/>
    </linearGradient>
  </defs>
  
  <!-- Hose (curved with neon yellow gradient) -->
  <path d="M22 16c2 0 4 2 4 4s-2 4-4 4" fill="none" stroke="#FFFF33" stroke-width="1.5" stroke-linecap="round" filter="url(#glow)"/>
  <path d="M22.5 16.5c1.8 0 3.5 1.5 3.5 3.5s-1.7 3.5-3.5 3.5" fill="none" stroke="url(#hoseGradient)" stroke-width="0.5"/>
  <defs>
    <linearGradient id="hoseGradient" x1="52" y1="50" x2="26" y2="24" gradientUnits="userSpaceOnUse">
      <stop stop-color="#FFFF33"/>
      <stop offset="1" stop-color="#CCBB00"/>
    </linearGradient>
  </defs>
  
  <!-- Smoke swirls (neon pink with glow) -->
  <path d="M9 6c-1.5-1-2.5-1.5-3.5-1.5s-2 .5-2 1.5 1 1.5 2 1.5c1 0 1.5-.5 2.5-1.5" fill="none" stroke="url(#smokeGradient)" stroke-width="1" stroke-linecap="round" filter="url(#glow)"/>
  <path d="M7 4c-.5-.5-1-1-2-1s-1.5.5-1.5 1 0.5 1 1.5 1c1 0 1.5-.5 2-1" fill="none" stroke="url(#smokeGradient)" stroke-width="0.8" stroke-linecap="round" filter="url(#glow)"/>
  <defs>
    <linearGradient id="smokeGradient" x1="3" y1="4" x2="9" y2="6" gradientUnits="userSpaceOnUse">
      <stop stop-color="#FF007F" stop-opacity="0.9"/>
      <stop offset="1" stop-color="#C6005C" stop-opacity="0.5"/>
    </linearGradient>
  </defs>
</svg>